<?xml version="1.0" encoding="utf-8"?>
<!-- Generator: Adobe Illustrator 25.3.1, SVG Export Plug-In . SVG Version: 6.00 Build 0)  -->
<svg version="1.1" id="Layer_1" xmlns="http://www.w3.org/2000/svg" xmlns:xlink="http://www.w3.org/1999/xlink" x="0px" y="0px"
	 viewBox="0 0 1442 735" style="enable-background:new 0 0 1442 735;" xml:space="preserve">
<style type="text/css">
	.st0{fill:#020412;stroke:#000000;stroke-width:2;stroke-miterlimit:10;}
	.st1{fill:none;stroke:#000000;stroke-miterlimit:10;}
	.st2{fill:none;stroke:#000000;stroke-width:2;stroke-miterlimit:10;}
	.st3{fill:url(#SVGID_1_);}
	.st4{fill:url(#SVGID_2_);}
	.st5{fill:url(#SVGID_3_);}
	.st6{fill:url(#SVGID_4_);}
	.st7{fill:url(#SVGID_5_);}
	.st8{fill:url(#SVGID_6_);}
	.st9{stroke:#000000;stroke-width:8;stroke-miterlimit:10;}
	.st10{fill:url(#SVGID_7_);}
</style>
<rect x="2" class="st0" width="1442" height="735"/>
<g>
	<g>
		<linearGradient id="SVGID_1_" gradientUnits="userSpaceOnUse" x1="1115.5428" y1="412.3506" x2="1411" y2="412.3506">
			<stop  offset="0.2736" style="stop-color:#1714C2"/>
			<stop  offset="0.6942" style="stop-color:#FF303F"/>
		</linearGradient>
		<polygon class="st3" points="1388.27,464.01 1365.55,429.58 1342.82,395.14 1251.9,395.14 1297.37,326.28 1320.09,291.84 
			1342.82,257.41 1297.35,257.41 1274.64,291.83 1274.64,291.84 1251.9,326.26 1251.9,326.28 1229.17,360.69 1206.46,326.28 
			1206.46,326.26 1183.72,291.84 1183.72,291.83 1160.99,257.39 1115.54,257.39 1138.28,291.83 1160.99,326.26 1183.72,360.69 
			1183.72,360.71 1206.46,395.13 1206.46,395.14 1229.17,429.58 1229.19,429.58 1251.9,464.01 1274.64,498.42 1274.64,498.44 
			1297.37,532.86 1297.37,532.87 1320.09,567.29 1320.09,567.31 1365.55,567.31 1365.55,567.29 1342.82,532.87 1342.82,532.86 
			1320.09,498.44 1320.09,498.42 1297.37,464.01 1274.64,429.58 1320.09,429.58 1342.82,464.01 1365.55,498.42 1365.55,498.44 
			1388.27,532.86 1411,498.44 1411,498.42 		"/>
	</g>
	<g>
		<linearGradient id="SVGID_2_" gradientUnits="userSpaceOnUse" x1="911" y1="498.4329" x2="1320.0854" y2="498.4329">
			<stop  offset="0.2736" style="stop-color:#1714C2"/>
			<stop  offset="0.6942" style="stop-color:#FF303F"/>
		</linearGradient>
		<polygon class="st4" points="1297.37,601.72 1274.64,567.31 1274.64,567.29 1251.9,532.87 1251.9,532.86 1229.19,498.44 
			1229.19,498.42 1206.46,464.01 1183.72,429.58 1183.72,429.56 1160.99,395.13 1138.28,360.69 1138.26,360.69 1115.54,326.26 
			1092.81,360.69 1092.81,360.71 1115.52,395.13 1115.54,395.13 1115.54,395.14 1138.26,429.56 1138.26,429.58 1160.99,463.99 
			1160.99,464.01 1183.72,498.44 1138.26,498.42 1047.36,498.42 1024.63,464.01 1024.63,463.99 1001.89,429.58 1001.89,429.56 
			979.18,395.14 979.16,395.13 956.45,360.71 956.45,360.69 933.71,326.28 911,360.69 911,360.71 933.71,395.13 933.71,395.14 
			956.45,429.56 956.45,429.58 979.16,463.99 979.18,463.99 979.18,464.01 1001.89,498.42 1024.63,532.86 1047.36,567.29 
			1070.08,601.72 1092.81,636.16 1092.81,636.17 1115.54,670.59 1138.28,636.17 1138.28,636.16 1115.54,601.74 1115.54,601.72 
			1070.08,532.86 1160.99,532.86 1160.99,532.87 1206.46,532.87 1229.17,567.31 1274.64,636.17 1297.35,670.61 1320.09,636.17 
			1320.09,636.16 1297.37,601.74 		"/>
	</g>
</g>
<g>
	<linearGradient id="SVGID_3_" gradientUnits="userSpaceOnUse" x1="169.508" y1="495" x2="543.3765" y2="495">
		<stop  offset="0.4387" style="stop-color:#FF303F"/>
		<stop  offset="0.7655" style="stop-color:#1714C2"/>
	</linearGradient>
	<polygon class="st5" points="487.77,486.5 543.38,422.75 507.78,381.94 452.14,445.7 372.02,445.7 467.72,336.05 432.09,295.25 
		169.51,596.15 205.1,636.95 306,521.34 346.06,567.25 270.4,653.94 306,694.75 417.27,567.25 366.83,509.45 386.85,486.5 	"/>
	<linearGradient id="SVGID_4_" gradientUnits="userSpaceOnUse" x1="43.3765" y1="440.1732" x2="366.8265" y2="440.1732">
		<stop  offset="0.4387" style="stop-color:#FF303F"/>
		<stop  offset="0.7655" style="stop-color:#1714C2"/>
	</linearGradient>
	<polygon class="st6" points="339.02,304.18 336.4,301.2 326.01,301.2 250.36,387.9 210.3,387.9 190.28,364.95 245.89,301.2 
		174.7,301.2 43.38,451.65 79,492.45 154.66,405.75 174.67,428.7 214.76,428.7 119.06,538.35 154.65,579.15 366.83,336.05 	"/>
</g>
<g>
	<linearGradient id="SVGID_5_" gradientUnits="userSpaceOnUse" x1="500" y1="260" x2="1000" y2="260">
		<stop  offset="0.2283" style="stop-color:#1714C2"/>
		<stop  offset="0.3012" style="stop-color:#4F1BA2"/>
		<stop  offset="0.5324" style="stop-color:#FF303F"/>
		<stop  offset="0.8916" style="stop-color:#1714C2"/>
	</linearGradient>
	<polygon class="st7" points="1000,64.6 952.99,64.6 899.62,118.54 767.2,118.54 820.57,64.6 726.58,64.6 500,293.59 593.99,293.59 
		700.73,185.71 826.79,185.71 826.79,192.14 733.15,286.78 733.15,226.41 666.69,226.41 666.69,455.4 733.15,455.4 733.15,401.46 
		773.43,401.46 773.43,455.4 839.89,455.4 839.89,334.29 780.17,334.29 1000,112.11 	"/>
</g>
</svg>
