<?xml version="1.0" encoding="utf-8"?>
<!-- Generator: Adobe Illustrator 25.3.1, SVG Export Plug-In . SVG Version: 6.00 Build 0)  -->
<svg version="1.1" id="Layer_1" xmlns="http://www.w3.org/2000/svg" xmlns:xlink="http://www.w3.org/1999/xlink" x="0px" y="0px"
	 viewBox="0 0 1436 878" style="enable-background:new 0 0 1436 878;" xml:space="preserve">
<style type="text/css">
	.st0{fill:#020412;stroke:#000000;stroke-width:2;stroke-miterlimit:10;}
	.st1{fill:none;stroke:#000000;stroke-miterlimit:10;}
	.st2{fill:none;stroke:#000000;stroke-width:2;stroke-miterlimit:10;}
	.st3{fill:url(#SVGID_1_);}
	.st4{fill:url(#SVGID_2_);}
	.st5{fill:url(#SVGID_3_);}
	.st6{fill:url(#SVGID_4_);}
	.st7{fill:url(#SVGID_5_);}
	.st8{fill:url(#SVGID_6_);}
	.st9{stroke:#000000;stroke-width:8;stroke-miterlimit:10;}
	.st10{fill:url(#SVGID_7_);}
	.st11{fill:#FF303F;}
</style>
<g>
	<g>
		<polygon class="st11" points="590.81,640.46 633,640.46 611.91,676.98 485.39,676.98 506.48,640.46 548.63,640.46 590.81,567.41 
			633,567.41 612.57,602.79 611.91,603.93 		"/>
	</g>
	<g>
		<polygon points="823.43,383.64 822.79,384.78 802.34,420.17 802.34,420.19 801.7,421.31 781.27,456.69 780.61,457.83 
			760.18,493.22 759.51,494.36 739.1,529.72 738.42,530.88 718.01,566.27 717.35,567.41 696.92,602.79 696.26,603.93 675.82,639.29 
			675.16,640.46 654.73,675.84 654.07,676.98 611.91,676.98 633,640.46 633.66,639.32 654.09,603.93 654.75,602.79 675.19,567.41 
			675.82,566.29 696.28,530.88 696.92,529.74 717.35,494.36 590.84,494.36 570.4,529.74 569.74,530.88 548.65,567.41 527.56,603.93 
			506.48,640.46 485.39,676.98 443.21,676.98 464.3,640.46 485.37,603.93 527.56,530.88 548.65,494.36 549.31,493.22 569.74,457.83 
			570.4,456.69 590.81,421.31 591.47,420.17 611.91,384.78 612.57,383.64 633,348.26 633.66,347.12 654.09,311.73 654.73,310.59 
			675.16,275.21 675.82,274.07 696.92,237.56 718.01,201.02 739.1,237.56 718.01,274.09 717.35,275.21 696.92,310.59 696.28,311.73 
			675.82,347.14 675.19,348.26 654.75,383.64 654.09,384.78 633.66,420.17 633,421.31 612.57,456.71 613.21,457.83 738.44,457.83 
			739.1,456.71 739.1,456.69 759.54,421.31 760.2,420.17 780.63,384.78 781.27,383.66 801.7,348.26 802.36,347.14 803,348.26 		"/>
	</g>
	<g>
		<polygon class="st11" points="802.36,347.14 801.7,348.26 781.27,383.66 760.84,348.26 760.18,347.14 759.54,348.26 739.1,383.64 
			738.44,384.78 718.01,420.17 697.58,384.78 696.92,383.64 717.35,348.26 718.01,347.12 738.42,311.73 739.08,310.59 
			718.65,275.21 718.01,274.09 739.1,237.56 760.18,274.07 760.84,275.21 781.27,310.59 781.93,311.73 		"/>
	</g>
	<g>
		<polygon class="st11" points="844.53,420.17 843.89,421.31 823.43,456.71 803,421.31 802.34,420.19 802.34,420.17 822.79,384.78 
			823.43,383.64 824.09,384.78 		"/>
	</g>
	<g>
		<polygon class="st11" points="992.79,676.98 866.28,676.98 865.62,675.84 845.19,640.46 928.21,640.46 928.88,639.32 
			908.44,603.93 907.78,602.79 887.35,567.41 886.71,566.29 907.14,530.88 907.81,529.74 908.44,530.88 928.88,566.27 
			929.54,567.41 949.97,602.79 950.63,603.93 971.72,640.46 		"/>
	</g>
	<g>
		<polygon points="907.81,529.74 907.14,530.88 886.71,566.29 886.05,567.41 865.62,602.79 864.96,603.93 824.09,603.93 
			844.53,639.32 845.19,640.46 865.62,675.84 866.28,676.98 824.12,676.98 823.46,675.84 803.02,640.46 802.36,639.29 
			781.93,603.93 780.61,603.93 760.18,639.29 759.51,640.46 739.08,675.84 738.42,676.98 696.26,676.98 696.92,675.84 
			717.35,640.46 718.01,639.32 738.44,603.93 739.1,602.79 759.54,567.41 760.2,566.27 760.2,566.24 780.61,530.88 781.27,529.74 
			801.7,494.36 802.36,493.22 822.79,457.83 823.43,456.71 843.89,421.31 844.53,420.17 845.19,421.31 865.62,456.69 864.96,457.83 
			844.53,493.22 843.86,494.36 823.43,529.72 823.43,529.74 822.77,530.88 802.34,566.27 801.68,567.41 843.86,567.41 
			844.53,566.27 864.96,530.88 865.62,529.74 886.05,494.36 886.71,493.22 887.37,494.36 		"/>
	</g>
	<g>
		<polygon class="st11" points="824.12,676.98 738.42,676.98 739.08,675.84 759.51,640.46 803.02,640.46 823.46,675.84 		"/>
	</g>
</g>
</svg>
